<svg id="visual" viewBox="0 0 1920 1080" width="1920" height="1080" xmlns="http://www.w3.org/2000/svg" xmlns:xlink="http://www.w3.org/1999/xlink" version="1.1"><rect x="0" y="0" width="1920" height="1080" fill="#001220"></rect><defs><linearGradient id="grad1_0" x1="43.8%" y1="0%" x2="100%" y2="100%"><stop offset="14.444444444444446%" stop-color="#001220" stop-opacity="1"></stop><stop offset="85.55555555555554%" stop-color="#001220" stop-opacity="1"></stop></linearGradient></defs><defs><linearGradient id="grad2_0" x1="0%" y1="0%" x2="56.3%" y2="100%"><stop offset="14.444444444444446%" stop-color="#001220" stop-opacity="1"></stop><stop offset="85.55555555555554%" stop-color="#001220" stop-opacity="1"></stop></linearGradient></defs><g transform="translate(1920, 0)"><path d="M0 324C-32.3 295.6 -64.6 267.3 -106 255.9C-147.4 244.5 -198 250.1 -229.1 229.1C-260.2 208.1 -272 160.5 -284.6 117.9C-297.1 75.3 -310.6 37.6 -324 0L0 0Z" fill="#4FBDBA"></path></g><g transform="translate(0, 1080)"><path d="M0 -324C35.3 -296.9 70.7 -269.9 104.1 -251.3C137.5 -232.7 169 -222.7 204.4 -204.4C239.7 -186 278.8 -159.4 299.3 -124C319.9 -88.6 322 -44.3 324 0L0 0Z" fill="#4FBDBA"></path></g></svg>