<svg width="668" height="201" viewBox="0 0 668 201" fill="none" xmlns="http://www.w3.org/2000/svg">
<path d="M30.5499 155.93C21.1499 155.93 13.79 152.6 8.46997 145.93C3.14997 139.13 0.5 129.69 0.5 117.61C0.5 102.2 4.51994 88.94 12.5599 77.84C20.7399 66.73 31.9799 61.18 46.2899 61.18L53.6499 61.6C55.9699 60.35 58.5599 59.73 61.4199 59.73C72.1899 59.73 77.5699 70.07 77.5699 90.76C83.1599 90.48 88.8099 89.72 94.5399 88.47L97.8099 87.64L99.0399 95.76C94.5399 97.7 88.48 99.44 80.84 100.97L76.75 101.8C74.16 116.38 68.9099 129.08 61.0099 139.91C53.1099 150.6 42.9499 155.94 30.5499 155.94V155.93ZM41.59 138.03C47.31 138.03 52.4299 134.28 56.9199 126.79C61.5499 119.29 64.7599 111.38 66.5299 103.05C51.9499 103.05 44.6599 97.5 44.6599 86.39C44.6599 81.95 45.5499 77.78 47.3199 73.9L48.34 71.82C47.79 71.54 47.1099 71.4 46.2999 71.4C45.4899 71.4 44.87 71.54 44.46 71.82C41.05 74.04 37.85 79.25 34.85 87.44C31.85 95.63 30.35 105 30.35 115.55C30.35 130.54 34.1 138.04 41.59 138.04V138.03Z" fill="#5E4BED"/>
<path d="M90.08 136.36L92.33 82.0099C92.33 77.2899 89.88 72.4299 84.97 67.4299L85.38 64.9299C86.33 64.6499 87.2199 64.4399 88.0399 64.3099C88.9899 64.0299 90.02 63.7499 91.11 63.4799C92.34 63.1999 93.7 62.9199 95.2 62.6499C96.7 62.3699 98.2699 62.0899 99.8999 61.8199C103.72 61.3999 107.26 61.2 110.53 61.2C113.8 61.2 116.8 62.5899 119.12 65.3599C121.57 68.1399 122.8 72.5799 122.8 78.6899C122.8 84.7999 121.85 93.27 119.94 104.51C118.17 115.62 117.28 123.95 117.28 129.5C117.28 135.05 118.57 137.62 121.16 137.62C125.39 137.62 130.02 134.91 135.06 129.5C135.2 127.28 136.08 120.2 137.72 108.26C139.36 96.32 140.17 87.6399 140.17 82.2299C140.17 76.82 139.76 72.1699 138.94 68.2799C149.43 64.2499 158.84 62.2399 167.15 62.2399C168.92 63.4899 169.81 67.5799 169.81 74.5299C169.81 81.4799 168.65 90.8399 166.33 103.06C164.01 115.14 162.85 123.95 162.85 129.51C162.85 135.07 163.94 137.63 166.12 137.63C171.3 137.63 176.95 133.74 183.09 125.97C189.22 118.06 192.49 111.46 192.9 106.19L179 90.3599C179.55 84.3899 180.98 78.9799 183.29 74.1199C185.61 69.2599 187.79 65.86 189.83 63.92L192.69 61.2099C198.55 61.2099 202.98 62.8099 205.98 65.9999C208.98 69.1899 210.48 72.9399 210.48 77.2499C210.48 88.2199 207.82 99.81 202.51 112.03C197.2 124.25 190.04 134.66 181.04 143.27C172.04 151.74 162.91 155.97 153.65 155.97C149.02 155.97 145.06 154.65 141.79 152.01C138.66 149.23 136.54 145.69 135.45 141.39C125.91 151.11 116.64 155.97 107.65 155.97C101.65 155.97 97.22 154.1 94.36 150.35C91.5 146.46 90.0699 141.81 90.0699 136.4L90.08 136.36Z" fill="#5E4BED"/>
<path d="M218.68 154.06H214.8C214.8 147.54 216.71 135.04 220.52 116.58C224.47 98.12 226.45 87.63 226.45 85.14C226.45 80.56 224.54 75.6999 220.73 70.5599L218.89 68.0599L219.09 65.3499C226.45 63.2699 238.24 62.2299 254.46 62.2299C256.23 64.5899 257.19 68.89 257.32 75.14C269.18 65.84 279.19 61.1899 287.37 61.1899C292.28 61.1899 296.16 62.9299 299.02 66.3999C302.02 69.8699 303.52 74.2399 303.52 79.5199C303.52 84.7999 301.95 93.6099 298.82 106.38C295.69 119.15 294.12 127.76 294.12 132.2C294.12 136.64 294.66 138.66 295.76 138.66C296.58 138.66 299.44 137.34 304.35 134.7L306.8 133.45L310.48 140.74C309.25 141.85 307.62 143.24 305.57 144.9C303.53 146.57 299.71 148.86 294.12 151.77C288.67 154.55 283.76 155.94 279.4 155.94C269.45 155.94 264.48 150.18 264.48 138.66C264.48 133.8 265.98 124.85 268.98 111.8C272.11 98.7499 273.68 90.3499 273.68 86.5999C273.68 82.8499 272.52 80.9799 270.2 80.9799C266.25 80.9799 261.41 82.7099 255.68 86.1899C255.27 88.5499 253.91 94.7999 251.59 104.93C246.82 126.73 244.43 142.14 244.43 151.16C239.66 153.1 231.07 154.08 218.67 154.08L218.68 154.06Z" fill="#5E4BED"/>
<path d="M311.05 200.08C310.37 198.41 310.03 194.73 310.03 189.04C310.03 183.35 312.69 168.08 318 143.23C323.32 118.24 325.97 99.0099 325.97 85.5499C325.97 82.9099 325.36 80.1399 324.13 77.2199C322.9 74.1699 321.61 71.81 320.25 70.14L318.41 67.8499L318.61 65.14C325.02 63.06 336.33 62.0199 352.55 62.0199C354.05 64.9399 355 69.0299 355.41 74.3099C365.9 65.5599 374.63 61.1899 381.58 61.1899C388.53 61.1899 394.32 64.17 398.55 70.14C402.91 76.11 405.09 84.8599 405.09 96.3799C405.09 116.51 401.48 131.5 394.25 141.36C387.03 151.08 377.9 155.94 366.86 155.94C361.14 155.94 356.37 155.11 352.55 153.44L350.51 152.61L351.94 144.49C353.17 144.77 354.6 144.91 356.23 144.91C359.77 144.91 362.84 143.24 365.43 139.91C368.16 136.58 370.2 132.34 371.56 127.21C374.29 116.94 375.65 107.43 375.65 98.6799C375.65 86.1899 373.13 79.9399 368.09 79.9399C364.14 79.9399 359.91 81.5399 355.41 84.7299C354.87 94.45 352.07 111.45 347.03 135.75C341.99 160.05 339.47 179.62 339.47 194.47C332.11 197.52 322.64 199.4 311.05 200.09V200.08Z" fill="#5E4BED"/>
<path d="M475.32 67.22C475.59 66.94 476.34 65.14 477.57 61.81C483.98 61.81 492.56 63.75 503.33 67.64C499.92 79.16 497.2 91.24 495.15 103.87C493.11 116.36 492.08 125.32 492.08 130.73C492.08 136.14 492.62 138.64 493.72 138.64C494.54 138.64 497.54 137.32 502.72 134.68L505.17 133.43L508.85 140.72C507.62 141.83 505.99 143.22 503.94 144.88C502.03 146.55 498.35 148.84 492.9 151.75C487.45 154.53 482.54 155.92 478.18 155.92C469.73 155.92 464.82 152.03 463.46 144.26C454.74 152.03 446.83 155.92 439.74 155.92C432.65 155.92 426.86 153.14 421.95 147.59C417.18 142.04 414.79 133.29 414.79 121.35C414.79 102.75 418.54 88.1 426.03 77.41C433.53 66.58 442.59 61.17 453.22 61.17C460.85 61.17 468.21 63.18 475.3 67.21L475.32 67.22ZM452.02 138.23C455.29 138.23 458.97 136.91 463.06 134.27C464.01 114.7 467.22 95.33 472.67 76.17C468.58 74.37 465.11 73.46 462.24 73.46C457.33 73.46 453.11 78.39 449.56 88.25C446.15 97.97 444.45 108.73 444.45 120.53C444.45 132.33 446.97 138.23 452.01 138.23H452.02Z" fill="#5E4BED"/>
<path d="M576.62 63.68C576.35 67.15 575.19 71.18 573.14 75.76C567.96 75.2 563.05 74.93 558.42 74.93H554.74C548.47 105.89 545.34 125.19 545.34 132.82C545.34 136.85 546.16 138.86 547.79 138.86C549.56 138.86 554.13 137.12 561.49 133.65L565.17 140.52C553.04 150.79 541.8 155.93 531.44 155.93C526.67 155.93 522.72 154.4 519.58 151.35C516.58 148.3 515.08 144.27 515.08 139.27C515.08 134.27 515.62 128.37 516.72 121.99C517.95 115.6 519.58 107.83 521.63 98.67C523.67 89.37 525.17 81.87 526.13 76.18C521.09 76.6 517.34 77.01 514.89 77.43C514.62 75.76 514.48 73.54 514.48 70.77C514.48 67.85 514.68 65.49 515.09 63.69H527.97C529.06 56.19 529.61 49.11 529.61 42.45L529.4 35.99V35.37C540.03 31.62 550.05 29.75 559.45 29.75C559.99 32.53 560.27 36 560.27 40.16C560.27 44.32 559.11 52.17 556.79 63.69H576.62V63.68Z" fill="#5E4BED"/>
<path d="M596.84 16C596.84 11.42 596.43 8.15996 595.61 6.20996C606.24 2.45996 616.26 0.589966 625.66 0.589966C626.89 1.83997 627.5 5.02998 627.5 10.17C627.5 19.33 623.68 40.43 616.05 73.48C627.09 65.29 636.77 61.19 645.08 61.19C650.26 61.19 654.14 62.86 656.73 66.19C659.46 69.52 660.82 73.96 660.82 79.52C660.82 85.08 659.25 93.89 656.12 106.38C652.99 118.74 651.42 127.2 651.42 131.79C651.42 136.38 651.97 138.66 653.06 138.66C654.15 138.66 657.01 137.41 661.65 134.91L664.1 133.66L667.78 140.95C666.55 142.06 664.92 143.45 662.87 145.12C660.83 146.79 657.08 149.01 651.63 151.78C646.18 154.56 641.14 155.95 636.5 155.95C631.86 155.95 628.39 154.49 625.66 151.58C622.93 148.53 621.57 144.5 621.57 139.5C621.57 134.5 623.07 125.13 626.07 111.8C629.2 98.33 630.77 89.87 630.77 86.39C630.77 82.91 629.34 80.98 626.48 80.98C622.94 80.98 618.51 82.51 613.19 85.56C605.69 119.16 601.95 140.95 601.95 150.95C596.23 153.17 586.48 154.28 572.71 154.28C572.57 151.92 572.51 149.84 572.51 148.03C572.51 142.06 576.53 121.65 584.57 86.81C592.75 51.96 596.84 28.36 596.84 16.01V16Z" fill="#5E4BED"/>
</svg>
